<svg width="24" height="24" viewBox="0 0 24 24" fill="none" xmlns="http://www.w3.org/2000/svg">
<g clip-path="url(#clip0)">
<path d="M9.58929 0.75V3.96429L7.98214 4.76786L5.57143 2.35714L2.35714 5.57143L4.76786 7.98214L3.96429 9.58929H0.75V14.4107H3.96429L4.76786 16.0179L2.35714 18.4286L5.57143 21.6429L7.98214 19.2321L9.58929 20.0357V23.25H14.4107V20.0357L16.0179 19.2321L18.4286 21.6429L21.6429 18.4286L19.2321 16.0179L20.0357 14.4107H23.25V9.58929H20.0357L19.2321 7.98214L21.6429 5.57143L18.4286 2.35714L16.0179 4.76786L14.4107 3.96429V0.75H9.58929Z" stroke="url(#paint0_linear)" stroke-width="2" stroke-linecap="round" stroke-linejoin="round"/>
<path d="M12 15C13.6569 15 15 13.6569 15 12C15 10.3431 13.6569 9 12 9C10.3431 9 9 10.3431 9 12C9 13.6569 10.3431 15 12 15Z" stroke="url(#paint1_linear)" stroke-width="2" stroke-linecap="round" stroke-linejoin="round"/>
</g>
<defs>
<linearGradient id="paint0_linear" x1="0.75" y1="0.75" x2="23.8023" y2="1.33081" gradientUnits="userSpaceOnUse">
<stop stop-color="#9DC2F3"/>
<stop offset="1" stop-color="#91DCF4"/>
</linearGradient>
<linearGradient id="paint1_linear" x1="9" y1="9" x2="15.1473" y2="9.15488" gradientUnits="userSpaceOnUse">
<stop stop-color="#9DC2F3"/>
<stop offset="1" stop-color="#91DCF4"/>
</linearGradient>
<clipPath id="clip0">
<rect width="24" height="24" fill="white"/>
</clipPath>
</defs>
</svg>
