<svg width="22" height="22" fill="none" xmlns="http://www.w3.org/2000/svg"><path d="M1.6 21.5c.07 0 .14 0 .2-.02l5.52-.96a.32.32 0 00.18-.1l13.9-13.9a.33.33 0 000-.47L15.95.6a.32.32 0 00-.23-.1.32.32 0 00-.23.1L1.58 14.5a.33.33 0 00-.1.18L.53 20.2a1.1 1.1 0 00.3.98c.22.2.5.32.79.32zm1.15-6L15.72 2.37l3.9 3.91L6.5 18.88l-4.13.75.38-4.13z" fill="url(#paint0_linear)"/><defs><linearGradient id="paint0_linear" x1=".5" y1=".5" x2="22.02" y2="1.04" gradientUnits="userSpaceOnUse"><stop stop-color="#9DC2F3"/><stop offset="1" stop-color="#91DCF4"/></linearGradient></defs></svg>