<svg width="27" height="32" fill="none" xmlns="http://www.w3.org/2000/svg"><path d="M9.57 11.6a.75.75 0 00-.75.74v14.17a.75.75 0 001.5 0V12.34a.75.75 0 00-.75-.75z" fill="url(#paint0_linear)"/><path d="M18.41 11.6a.75.75 0 00-.75.74v14.17a.75.75 0 001.5 0V12.34a.75.75 0 00-.75-.75z" fill="url(#paint1_linear)"/><path d="M14 11.6a.75.75 0 00-.76.74v14.17a.75.75 0 001.5 0V12.34a.75.75 0 00-.75-.75z" fill="url(#paint2_linear)"/><path fill-rule="evenodd" clip-rule="evenodd" d="M21.08 32H6.9a3.7 3.7 0 01-2.67-1.16A4.13 4.13 0 013.13 28V9.53a2.86 2.86 0 01.73-5.63H7.7v-.97A2.94 2.94 0 0110.67 0h6.65a2.94 2.94 0 012.97 2.93v.97h3.83a2.86 2.86 0 01.74 5.63v18.46c0 1.1-.4 2.12-1.1 2.85A3.69 3.69 0 0121.08 32zM9.2 2.96v.94h9.59v-.94-.06a1.44 1.44 0 00-1.47-1.4h-6.65A1.44 1.44 0 009.2 2.9v.06zM6.9 30.5h14.18c1.28 0 2.28-1.1 2.28-2.51V9.59H4.62V28c0 1.41 1 2.51 2.28 2.51zM24.12 5.4H3.86a1.35 1.35 0 100 2.7h20.26a1.35 1.35 0 100-2.7z" fill="url(#paint3_linear)"/><defs><linearGradient id="paint0_linear" x1="1" y1="0" x2="27.63" y2=".54" gradientUnits="userSpaceOnUse"><stop stop-color="#9DC2F3"/><stop offset="1" stop-color="#91DCF4"/></linearGradient><linearGradient id="paint1_linear" x1="1" y1="0" x2="27.63" y2=".54" gradientUnits="userSpaceOnUse"><stop stop-color="#9DC2F3"/><stop offset="1" stop-color="#91DCF4"/></linearGradient><linearGradient id="paint2_linear" x1="1" y1="0" x2="27.63" y2=".54" gradientUnits="userSpaceOnUse"><stop stop-color="#9DC2F3"/><stop offset="1" stop-color="#91DCF4"/></linearGradient><linearGradient id="paint3_linear" x1="1" y1="0" x2="27.63" y2=".54" gradientUnits="userSpaceOnUse"><stop stop-color="#9DC2F3"/><stop offset="1" stop-color="#91DCF4"/></linearGradient></defs></svg>