<svg width="24" height="24" fill="none" xmlns="http://www.w3.org/2000/svg"><g clip-path="url(#clip0)" stroke-width="2" stroke-linecap="round" stroke-linejoin="round"><path d="M9.59.75v3.21l-1.6.8-2.42-2.4-3.21 3.21 2.4 2.41-.8 1.6H.75v4.83h3.21l.8 1.6-2.4 2.42 3.21 3.21 2.41-2.4 1.6.8v3.21h4.83v-3.21l1.6-.8 2.42 2.4 3.21-3.21-2.4-2.41.8-1.6h3.21V9.58h-3.21l-.8-1.6 2.4-2.42-3.21-3.21-2.41 2.4-1.6-.8V.75H9.58z" stroke="url(#paint0_linear)"/><path d="M12 15a3 3 0 100-6 3 3 0 000 6z" stroke="url(#paint1_linear)"/></g><defs><linearGradient id="paint0_linear" x1=".75" y1=".75" x2="23.8" y2="1.33" gradientUnits="userSpaceOnUse"><stop stop-color="#9DC2F3"/><stop offset="1" stop-color="#91DCF4"/></linearGradient><linearGradient id="paint1_linear" x1="9" y1="9" x2="15.15" y2="9.15" gradientUnits="userSpaceOnUse"><stop stop-color="#9DC2F3"/><stop offset="1" stop-color="#91DCF4"/></linearGradient><clipPath id="clip0"><path fill="#fff" d="M0 0h24v24H0z"/></clipPath></defs></svg>